<svg id="组_15" data-name="组 15" xmlns="http://www.w3.org/2000/svg" width="256.088" height="256.612" viewBox="0 0 256.088 256.612">
  <path id="路径_1735" data-name="路径 1735" d="M412.592,464.612H240.3a42.019,42.019,0,0,1-41.9-41.9V249.9A42.019,42.019,0,0,1,240.3,208h172.3a42.019,42.019,0,0,1,41.9,41.9v172.82A42.019,42.019,0,0,1,412.592,464.612Z" transform="translate(-198.4 -208)" fill="none"/>
  <g id="组_12" data-name="组 12" transform="translate(27.408 48.404)">
    <path id="路径_1732" data-name="路径 1732" d="M207.439,17.765m-17.765,0A17.765,17.765,0,1,0,207.439,0,17.765,17.765,0,0,0,189.674,17.765Z" transform="translate(-160.058 0)" fill="#00c89d"/>
    <path id="路径_1733" data-name="路径 1733" d="M76.99,522.9a8.883,8.883,0,0,1-7.165,9.072.131.131,0,0,0,.047.118H7.172a.162.162,0,0,1,.036-.118,8.883,8.883,0,0,1-7.2-9.072,9.978,9.978,0,0,1,.865-4.033l-.142-.03,30.752-59.514c0,.036.047.059.065.095a7.752,7.752,0,0,1,13.892,0c0-.036.047-.059.065-.095l30.385,58.8H75.77a9.914,9.914,0,0,1,1.22,4.779Z" transform="translate(0 -384.049)" fill="#bdf2e7"/>
    <path id="路径_1734" data-name="路径 1734" d="M489.419,271.743A16.066,16.066,0,0,1,475.633,287.8c.042.065.053.148.095.213H355.148c.03-.065.041-.142.071-.207a16.06,16.06,0,0,1-13.845-16.06,16.468,16.468,0,0,1,1.664-7.106c-.095,0-.178-.047-.272-.053l59.141-105.289c.035.059.089.107.13.166a15.509,15.509,0,0,1,26.719,0c.036-.059.095-.107.13-.166l58.436,104.028a1.451,1.451,0,0,0-.231.047A16.45,16.45,0,0,1,489.419,271.743Z" transform="translate(-288.071 -128.122)" fill="#00c89d"/>
  </g>
</svg>
