<svg id="组_14" data-name="组 14" xmlns="http://www.w3.org/2000/svg" width="513.587" height="514.637" viewBox="0 0 513.587 514.637">
  <path id="路径_1735" data-name="路径 1735" d="M627.965,722.637H282.422A84.27,84.27,0,0,1,198.4,638.615V292.022A84.269,84.269,0,0,1,282.422,208H627.965a84.27,84.27,0,0,1,84.022,84.022V638.615A84.27,84.27,0,0,1,627.965,722.637Z" transform="translate(-198.4 -208)" fill="#fff"/>
  <g id="组_12" data-name="组 12" transform="translate(54.968 97.075)">
    <path id="路径_1732" data-name="路径 1732" d="M225.3,35.629m-35.629,0A35.629,35.629,0,1,0,225.3,0,35.629,35.629,0,0,0,189.674,35.629Z" transform="translate(-130.279 0)" fill="#00c89d"/>
    <path id="路径_1733" data-name="路径 1733" d="M154.4,591.069a17.814,17.814,0,0,1-14.37,18.194.262.262,0,0,0,.1.238H14.384a.326.326,0,0,1,.071-.238A17.814,17.814,0,0,1,.014,591.069a20.011,20.011,0,0,1,1.734-8.088l-.285-.059L63.136,463.566c0,.071.1.119.131.19a15.546,15.546,0,0,1,27.862,0c0-.071.1-.119.131-.19L152.2,581.485h-.238a19.882,19.882,0,0,1,2.447,9.584Z" transform="translate(0 -312.596)" fill="#bdf2e7"/>
    <path id="路径_1734" data-name="路径 1734" d="M638.281,392.318a32.22,32.22,0,0,1-27.648,32.2c.083.13.107.3.19.427H369c.059-.131.083-.285.143-.416a32.208,32.208,0,0,1-27.766-32.208,33.025,33.025,0,0,1,3.337-14.251c-.19,0-.356-.095-.546-.107L462.773,166.8c.071.119.178.214.261.332a31.1,31.1,0,0,1,53.585,0c.071-.119.19-.214.261-.332L634.075,375.43a2.908,2.908,0,0,0-.463.1A32.992,32.992,0,0,1,638.281,392.318Z" transform="translate(-234.475 -104.284)" fill="#00c89d"/>
  </g>
</svg>
